<svg width="289" height="66" viewBox="0 0 289 66" fill="none" xmlns="http://www.w3.org/2000/svg">
<path d="M53.504 61.392C52.5227 59.728 51.4987 58.1067 50.432 56.528C49.3653 54.9493 48.2773 53.3707 47.168 51.792C46.6987 51.1947 46.4853 50.6187 46.528 50.064C46.6133 49.4667 46.9547 48.9547 47.552 48.528L48.128 48.08C48.896 47.5253 49.216 47.0773 49.088 46.736C49.0027 46.3947 48.4907 46.224 47.552 46.224H7.424C6.784 46.224 6.25067 46.032 5.824 45.648C5.44 45.2213 5.248 44.688 5.248 44.048V42.064C5.248 41.424 5.44 40.912 5.824 40.528C6.25067 40.1013 6.784 39.888 7.424 39.888H10.112C10.752 39.888 11.264 39.696 11.648 39.312C12.0747 38.8853 12.288 38.352 12.288 37.712V33.424C12.288 32.784 12.0747 32.272 11.648 31.888C11.264 31.4613 10.752 31.248 10.112 31.248H5.056C4.416 31.248 3.88267 31.056 3.456 30.672C3.072 30.2453 2.88 29.712 2.88 29.072V27.024C2.88 26.384 3.072 25.872 3.456 25.488C3.88267 25.0613 4.416 24.848 5.056 24.848H10.112C10.752 24.848 11.264 24.656 11.648 24.272C12.0747 23.8453 12.288 23.312 12.288 22.672V20.176C12.288 19.4933 12.1387 19.152 11.84 19.152C11.6267 19.152 11.3493 19.3227 11.008 19.664L9.664 21.008C9.45067 21.2213 9.23733 21.4133 9.024 21.584C8.85333 21.7547 8.66133 21.9467 8.448 22.16C8.14933 22.4587 7.78667 22.608 7.36 22.608C6.976 22.608 6.54933 22.416 6.08 22.032C5.86667 21.8187 5.61067 21.6053 5.312 21.392C5.056 21.1787 4.8 20.9653 4.544 20.752C4.24533 20.5387 3.968 20.3467 3.712 20.176C3.49867 20.0053 3.264 19.8347 3.008 19.664C2.02667 19.024 1.984 18.3413 2.88 17.616C3.73333 16.848 4.62933 15.9733 5.568 14.992C6.54933 13.968 7.488 12.9013 8.384 11.792C9.28 10.64 10.1333 9.488 10.944 8.336C11.7547 7.184 12.416 6.096 12.928 5.072C13.184 4.56 13.5467 4.19733 14.016 3.984C14.528 3.728 15.0827 3.68533 15.68 3.856L19.84 5.136C20.608 5.43466 20.8213 5.92533 20.48 6.608C20.3947 6.82133 20.288 7.01333 20.16 7.184C20.0747 7.35467 19.9893 7.52533 19.904 7.696L19.136 8.976C18.9227 9.31733 18.8587 9.616 18.944 9.872C19.072 10.0853 19.3707 10.192 19.84 10.192H55.744C56.384 10.192 56.896 10.4053 57.28 10.832C57.7067 11.216 57.92 11.728 57.92 12.368V14.352C57.92 14.992 57.7067 15.5253 57.28 15.952C56.896 16.336 56.384 16.528 55.744 16.528H54.016C53.376 16.528 52.8427 16.7413 52.416 17.168C52.032 17.552 51.84 18.064 51.84 18.704V22.672C51.84 23.312 52.032 23.8453 52.416 24.272C52.8427 24.656 53.376 24.848 54.016 24.848H58.88C59.52 24.848 60.032 25.0613 60.416 25.488C60.8427 25.872 61.056 26.384 61.056 27.024V29.072C61.056 29.712 60.8427 30.2453 60.416 30.672C60.032 31.056 59.52 31.248 58.88 31.248H54.016C53.376 31.248 52.8427 31.4613 52.416 31.888C52.032 32.272 51.84 32.784 51.84 33.424V37.712C51.84 38.352 52.032 38.8853 52.416 39.312C52.8427 39.696 53.376 39.888 54.016 39.888H56.96C57.6 39.888 58.112 40.1013 58.496 40.528C58.9227 40.912 59.136 41.424 59.136 42.064V44.048C59.136 44.688 58.9227 45.2213 58.496 45.648C58.112 46.032 57.6 46.224 56.96 46.224H53.888C53.0773 46.224 52.5867 46.416 52.416 46.8C52.288 47.1413 52.48 47.6107 52.992 48.208C53.2907 48.5493 53.568 48.8907 53.824 49.232C54.08 49.5733 54.3787 49.9147 54.72 50.256C55.616 51.408 56.4907 52.56 57.344 53.712C58.1973 54.864 59.0293 56.0587 59.84 57.296C60.1813 57.7653 60.2667 58.2347 60.096 58.704C59.968 59.1733 59.6267 59.536 59.072 59.792C58.816 59.9627 58.5387 60.1333 58.24 60.304C57.984 60.4747 57.7067 60.6667 57.408 60.88C57.1093 61.0507 56.832 61.2213 56.576 61.392C56.32 61.5627 56.0853 61.7333 55.872 61.904C55.5733 62.16 55.232 62.288 54.848 62.288C54.2933 62.288 53.8453 61.9893 53.504 61.392ZM21.12 24.848C21.7173 24.848 22.208 24.656 22.592 24.272C22.976 23.888 23.168 23.3973 23.168 22.8V18.576C23.168 17.9787 22.976 17.488 22.592 17.104C22.208 16.72 21.7173 16.528 21.12 16.528C20.5227 16.528 20.032 16.72 19.648 17.104C19.264 17.488 19.072 17.9787 19.072 18.576V22.8C19.072 23.3973 19.264 23.888 19.648 24.272C20.032 24.656 20.5227 24.848 21.12 24.848ZM42.944 24.848C43.5413 24.848 44.032 24.656 44.416 24.272C44.8 23.888 44.992 23.3973 44.992 22.8V18.576C44.992 17.9787 44.8 17.488 44.416 17.104C44.032 16.72 43.5413 16.528 42.944 16.528C42.3467 16.528 41.856 16.72 41.472 17.104C41.088 17.488 40.896 17.9787 40.896 18.576V22.8C40.896 23.3973 41.088 23.888 41.472 24.272C41.856 24.656 42.3467 24.848 42.944 24.848ZM32.064 24.848C32.6613 24.848 33.1307 24.656 33.472 24.272C33.856 23.888 34.048 23.3973 34.048 22.8V18.512C34.048 17.9147 33.856 17.4453 33.472 17.104C33.1307 16.72 32.6613 16.528 32.064 16.528C31.4667 16.528 30.976 16.72 30.592 17.104C30.208 17.4453 30.016 17.9147 30.016 18.512V22.8C30.016 23.3973 30.208 23.888 30.592 24.272C30.976 24.656 31.4667 24.848 32.064 24.848ZM21.12 39.888C21.7173 39.888 22.208 39.696 22.592 39.312C22.976 38.928 23.168 38.4373 23.168 37.84V33.296C23.168 32.6987 22.976 32.208 22.592 31.824C22.208 31.44 21.7173 31.248 21.12 31.248C20.5227 31.248 20.032 31.44 19.648 31.824C19.264 32.208 19.072 32.6987 19.072 33.296V37.84C19.072 38.4373 19.264 38.928 19.648 39.312C20.032 39.696 20.5227 39.888 21.12 39.888ZM42.944 39.888C43.5413 39.888 44.032 39.696 44.416 39.312C44.8 38.928 44.992 38.4373 44.992 37.84V33.296C44.992 32.6987 44.8 32.208 44.416 31.824C44.032 31.44 43.5413 31.248 42.944 31.248C42.3467 31.248 41.856 31.44 41.472 31.824C41.088 32.208 40.896 32.6987 40.896 33.296V37.84C40.896 38.4373 41.088 38.928 41.472 39.312C41.856 39.696 42.3467 39.888 42.944 39.888ZM32.064 39.888C32.6613 39.888 33.1307 39.696 33.472 39.312C33.856 38.928 34.048 38.4373 34.048 37.84V33.232C34.048 32.6347 33.856 32.1653 33.472 31.824C33.1307 31.44 32.6613 31.248 32.064 31.248C31.4667 31.248 30.976 31.44 30.592 31.824C30.208 32.1653 30.016 32.6347 30.016 33.232V37.84C30.016 38.4373 30.208 38.928 30.592 39.312C30.976 39.696 31.4667 39.888 32.064 39.888ZM7.424 62.032C6.95467 61.6907 6.42133 61.3493 5.824 61.008C5.184 60.5813 4.62933 60.2613 4.16 60.048C3.69067 59.8347 3.41333 59.536 3.328 59.152C3.28533 58.8107 3.456 58.448 3.84 58.064C4.82133 57.0827 5.73867 56.016 6.592 54.864C7.488 53.6693 8.34133 52.496 9.152 51.344C9.408 50.8747 9.664 50.448 9.92 50.064C10.176 49.6373 10.432 49.2107 10.688 48.784C11.1573 47.9307 11.8187 47.504 12.672 47.504C13.0133 47.504 13.3547 47.5893 13.696 47.76L16.256 48.976C16.8533 49.2747 17.2373 49.68 17.408 50.192C17.6213 50.704 17.5573 51.2587 17.216 51.856C16.2347 53.6907 15.1253 55.4187 13.888 57.04C12.6933 58.6613 11.4347 60.2613 10.112 61.84C9.728 62.2667 9.25867 62.48 8.704 62.48C8.27733 62.48 7.85067 62.3307 7.424 62.032ZM36.416 60.624C36.3307 60.24 36.2453 59.8347 36.16 59.408C36.1173 59.024 36.0533 58.6187 35.968 58.192C35.7547 57.3387 35.5627 56.5067 35.392 55.696C35.2213 54.8853 35.0293 54.0747 34.816 53.264C34.7307 52.9227 34.624 52.6027 34.496 52.304C34.4107 51.9627 34.3253 51.6213 34.24 51.28C33.8133 50 34.2613 49.1467 35.584 48.72L38.592 47.952C39.1467 47.7813 39.6373 47.824 40.064 48.08C40.5333 48.2933 40.8747 48.656 41.088 49.168C41.4293 50.3627 41.7493 51.536 42.048 52.688C42.3893 53.84 42.7307 55.0133 43.072 56.208C43.2853 57.1467 43.4773 58.0427 43.648 58.896C43.8613 60.0907 43.3707 60.7947 42.176 61.008C41.8773 61.0933 41.5787 61.1573 41.28 61.2C41.024 61.2427 40.7253 61.3067 40.384 61.392C40.0427 61.4773 39.7227 61.5413 39.424 61.584C39.1253 61.6693 38.8267 61.7547 38.528 61.84C37.3333 62.1813 36.6293 61.776 36.416 60.624ZM23.232 61.584C23.1467 60.2613 22.976 58.9387 22.72 57.616C22.5067 56.2507 22.272 54.928 22.016 53.648C21.9307 53.3067 21.8667 52.9867 21.824 52.688C21.7813 52.3467 21.7173 52.0053 21.632 51.664C21.504 51.0667 21.568 50.5547 21.824 50.128C22.08 49.6587 22.5067 49.3813 23.104 49.296L26.176 48.656C26.7307 48.528 27.2213 48.592 27.648 48.848C28.1173 49.104 28.4373 49.5093 28.608 50.064C28.6933 50.4053 28.7787 50.768 28.864 51.152C28.992 51.4933 29.0987 51.856 29.184 52.24C29.3547 53.0507 29.504 53.8613 29.632 54.672C29.8027 55.44 29.9733 56.2507 30.144 57.104C30.3147 58.256 30.4427 59.3227 30.528 60.304C30.6133 60.6453 30.5493 60.9227 30.336 61.136C30.1653 61.392 29.9093 61.5413 29.568 61.584L25.728 62.224C25.5147 62.2667 25.3013 62.3093 25.088 62.352C24.9173 62.3947 24.7253 62.4373 24.512 62.48C23.7867 62.6933 23.36 62.3947 23.232 61.584ZM104.704 61.2C104.661 60.944 104.619 60.688 104.576 60.432C104.533 60.176 104.491 59.8987 104.448 59.6C104.32 59.0453 104.192 58.5333 104.064 58.064C103.765 57.0827 104.107 56.592 105.088 56.592H106.88C108.459 56.592 109.525 56.1867 110.08 55.376C110.677 54.5227 110.976 53.3493 110.976 51.856V49.68C110.933 49.2107 110.741 49.1467 110.4 49.488C108.053 51.536 105.536 53.4133 102.848 55.12C100.203 56.8267 97.472 58.32 94.656 59.6C94.2293 59.8133 93.824 59.8347 93.44 59.664C93.056 59.536 92.7573 59.28 92.544 58.896C92.5013 58.8107 92.4587 58.7467 92.416 58.704C92.416 58.704 92.3947 58.6613 92.352 58.576L91.904 57.872C91.8613 57.7867 91.8187 57.744 91.776 57.744C91.776 57.7013 91.7547 57.6373 91.712 57.552C91.5413 57.3387 91.3707 57.1253 91.2 56.912C91.072 56.6987 90.944 56.5067 90.816 56.336C90.2613 55.6107 90.3893 55.0773 91.2 54.736C92.5653 54.1387 94.08 53.4133 95.744 52.56C97.408 51.7067 99.072 50.768 100.736 49.744C102.4 48.72 103.979 47.6747 105.472 46.608C107.008 45.4987 108.352 44.4107 109.504 43.344C109.803 43.1307 109.909 42.8107 109.824 42.384L109.44 41.296C109.312 40.912 109.099 40.8693 108.8 41.168C107.093 42.5333 105.323 43.8347 103.488 45.072C101.696 46.2667 99.8187 47.3547 97.856 48.336C97.0453 48.7627 96.384 48.5493 95.872 47.696C95.7867 47.5253 95.68 47.3333 95.552 47.12C95.424 46.9067 95.296 46.6933 95.168 46.48C94.9973 46.2667 94.848 46.0747 94.72 45.904C94.592 45.7333 94.464 45.5627 94.336 45.392C93.7813 44.6667 93.9093 44.1333 94.72 43.792C96.768 42.768 98.7947 41.6587 100.8 40.464C102.848 39.2693 104.768 37.9253 106.56 36.432C106.816 36.176 106.837 35.92 106.624 35.664L106.368 35.216L105.984 34.832C105.771 34.5333 105.515 34.4907 105.216 34.704C103.808 35.728 102.357 36.7093 100.864 37.648C99.3707 38.544 97.8347 39.3547 96.256 40.08C95.6587 40.336 95.1893 40.1867 94.848 39.632L94.4 38.928V38.864L94.336 38.8V38.736L93.696 37.904C93.2693 37.4347 92.7787 37.2853 92.224 37.456L90.496 38.16C89.984 38.3733 89.6853 38.224 89.6 37.712L89.088 35.856C88.9173 35.3867 88.5973 35.1947 88.128 35.28L86.528 35.536C85.9733 35.6213 85.696 35.9413 85.696 36.496V60.496C85.696 61.136 85.4827 61.648 85.056 62.032C84.672 62.4587 84.16 62.672 83.52 62.672H81.28C80.64 62.672 80.1067 62.4587 79.68 62.032C79.296 61.648 79.104 61.136 79.104 60.496V38.928C79.104 38.2027 78.8907 37.648 78.464 37.264C78.0373 36.88 77.4613 36.7307 76.736 36.816L74.368 37.072C73.984 37.1147 73.6213 37.1573 73.28 37.2C72.9813 37.2 72.6613 37.2213 72.32 37.264C71.7227 37.3493 71.2107 37.2213 70.784 36.88C70.4 36.5387 70.1653 36.0693 70.08 35.472L69.568 32.016C69.4827 31.4187 69.76 31.0773 70.4 30.992H71.36L72.448 30.928C73.1307 30.928 73.6853 30.672 74.112 30.16L75.904 27.984C76.1173 27.6853 76.352 27.3867 76.608 27.088C76.864 26.7467 77.0987 26.4053 77.312 26.064C77.696 25.5947 77.8453 25.0827 77.76 24.528C77.7173 23.9733 77.44 23.504 76.928 23.12C76.4587 22.7787 75.968 22.416 75.456 22.032C74.944 21.648 74.432 21.264 73.92 20.88C72.8533 20.1547 71.8293 19.472 70.848 18.832C70.2507 18.448 69.888 17.9787 69.76 17.424C69.6747 16.8693 69.8027 16.2933 70.144 15.696L71.872 13.072C72.1707 12.6453 72.5547 12.56 73.024 12.816L74.368 13.712C74.88 14.0107 75.264 13.9253 75.52 13.456C75.7333 13.0293 75.968 12.6027 76.224 12.176C76.48 11.7493 76.736 11.3013 76.992 10.832L78.848 7.184C79.104 6.71466 79.3173 6.224 79.488 5.712C80 4.816 80.7253 4.51733 81.664 4.816L83.776 5.648C84.5013 5.904 84.9493 6.33066 85.12 6.928C85.3333 7.48266 85.2693 8.08 84.928 8.72C84.5867 9.27466 84.2453 9.82933 83.904 10.384C83.6053 10.9387 83.2853 11.5147 82.944 12.112C82.4747 12.9653 82.0053 13.776 81.536 14.544C81.0667 15.2693 80.5973 15.9947 80.128 16.72C79.8293 17.1467 79.8933 17.5093 80.32 17.808L81.6 18.704C81.7707 18.832 81.9413 18.896 82.112 18.896C82.3253 18.8533 82.4747 18.7253 82.56 18.512C83.5413 17.0613 84.4587 15.568 85.312 14.032C85.5253 13.6907 85.7173 13.3493 85.888 13.008C86.1013 12.6667 86.3147 12.3253 86.528 11.984C86.9973 11.1733 87.6373 10.768 88.448 10.768C88.7893 10.768 89.1307 10.8533 89.472 11.024L91.264 11.92C91.8613 12.2613 92.2453 12.688 92.416 13.2C92.5867 13.712 92.5013 14.2667 92.16 14.864C91.8187 15.4187 91.456 15.9947 91.072 16.592C90.7307 17.1467 90.368 17.7227 89.984 18.32C88.7467 20.1973 87.488 22.032 86.208 23.824C84.928 25.616 83.6267 27.408 82.304 29.2C81.7067 30.0107 81.8987 30.3733 82.88 30.288L86.144 30.032C86.4853 29.9893 86.72 29.8827 86.848 29.712C86.976 29.4987 86.976 29.2213 86.848 28.88L86.08 26.96C85.7813 26.4053 85.952 26.0213 86.592 25.808L89.216 24.848C89.7707 24.6347 90.2827 24.6347 90.752 24.848C91.264 25.0187 91.6267 25.36 91.84 25.872C92.0533 26.3413 92.2667 26.832 92.48 27.344C92.6933 27.856 92.9067 28.3893 93.12 28.944C93.3333 29.4987 93.504 30.032 93.632 30.544C93.8027 31.0133 93.9947 31.504 94.208 32.016C94.5493 32.9973 95.1467 33.488 96 33.488C96.3413 33.488 96.7253 33.3813 97.152 33.168C97.8773 32.7413 98.5813 32.336 99.264 31.952C99.9893 31.5253 100.715 31.0773 101.44 30.608C102.08 30.1813 102.357 29.84 102.272 29.584C102.187 29.2853 101.76 29.136 100.992 29.136H95.744C95.104 29.136 94.5707 28.944 94.144 28.56C93.76 28.1333 93.568 27.6 93.568 26.96V25.488C93.568 24.848 93.76 24.336 94.144 23.952C94.5707 23.5253 95.104 23.312 95.744 23.312H113.28C114.261 23.312 114.752 22.8 114.752 21.776C114.752 20.7947 114.261 20.304 113.28 20.304H99.904C99.264 20.304 98.7307 20.112 98.304 19.728C97.92 19.3013 97.728 18.768 97.728 18.128V16.72C97.728 16.08 97.92 15.568 98.304 15.184C98.7307 14.7573 99.264 14.544 99.904 14.544H113.28C114.261 14.544 114.752 14.032 114.752 13.008C114.752 12.0267 114.261 11.536 113.28 11.536H98.624C97.984 11.536 97.4507 11.344 97.024 10.96C96.64 10.5333 96.448 10 96.448 9.36V7.952C96.448 7.312 96.64 6.8 97.024 6.416C97.4507 5.98933 97.984 5.776 98.624 5.776H119.296C119.936 5.776 120.448 5.98933 120.832 6.416C121.259 6.8 121.472 7.312 121.472 7.952V21.136C121.472 21.776 121.664 22.3093 122.048 22.736C122.475 23.12 123.008 23.312 123.648 23.312H126.464C127.104 23.312 127.616 23.5253 128 23.952C128.427 24.336 128.64 24.848 128.64 25.488V26.96C128.64 27.6 128.427 28.1333 128 28.56C127.616 28.944 127.104 29.136 126.464 29.136H112.768C112.128 29.136 111.552 29.392 111.04 29.904L110.912 30.032C110.4 30.544 110.4 31.0773 110.912 31.632C111.381 32.1867 111.829 32.7627 112.256 33.36C112.683 33.9573 113.088 34.576 113.472 35.216C114.027 36.112 114.667 36.56 115.392 36.56C115.947 36.56 116.437 36.3467 116.864 35.92C118.229 34.768 119.616 33.5733 121.024 32.336C121.536 31.824 122.091 31.568 122.688 31.568C123.243 31.568 123.733 31.76 124.16 32.144L125.376 33.296C125.931 33.7653 126.208 34.2987 126.208 34.896C126.251 35.4933 125.973 36.0267 125.376 36.496C124.949 36.8373 124.501 37.1787 124.032 37.52C123.605 37.8613 123.157 38.2027 122.688 38.544C121.621 39.3547 120.533 40.1227 119.424 40.848C118.784 41.3173 118.421 41.8507 118.336 42.448C118.293 43.0453 118.549 43.6213 119.104 44.176C120.256 45.2 121.387 46.224 122.496 47.248C123.648 48.2293 124.843 49.1893 126.08 50.128C126.635 50.512 127.147 50.8747 127.616 51.216C128.128 51.5573 128.619 51.8773 129.088 52.176C129.941 52.7733 130.027 53.4773 129.344 54.288C129.173 54.5013 129.003 54.7147 128.832 54.928C128.661 55.0987 128.469 55.2907 128.256 55.504C128.043 55.76 127.851 55.9947 127.68 56.208C127.552 56.4213 127.403 56.6347 127.232 56.848C126.891 57.3173 126.443 57.552 125.888 57.552C125.504 57.552 125.184 57.4453 124.928 57.232C123.605 56.2507 122.304 55.2267 121.024 54.16C119.787 53.0933 118.613 51.9413 117.504 50.704C117.419 50.6187 117.376 50.64 117.376 50.768L117.44 50.96V51.344C117.44 53.0507 117.312 54.6293 117.056 56.08C116.843 57.488 116.395 58.6827 115.712 59.664C115.029 60.6453 114.112 61.4133 112.96 61.968C111.808 62.5227 110.293 62.8 108.416 62.8H106.56C105.536 62.8 104.917 62.2667 104.704 61.2ZM89.408 51.92C89.3227 51.5787 89.216 51.216 89.088 50.832C88.96 50.4053 88.832 49.9573 88.704 49.488C88.448 48.6773 88.192 47.8453 87.936 46.992C87.68 46.1387 87.4453 45.264 87.232 44.368L86.656 42.064C86.4427 41.424 86.4853 40.8693 86.784 40.4C87.0827 39.9307 87.552 39.5893 88.192 39.376L89.536 39.056C90.1333 38.8853 90.6453 38.9493 91.072 39.248C91.5413 39.504 91.8613 39.9307 92.032 40.528C92.1173 40.8267 92.2027 41.1467 92.288 41.488C92.416 41.8293 92.544 42.1707 92.672 42.512C93.1413 44.176 93.6533 45.7547 94.208 47.248C94.336 47.7173 94.464 48.144 94.592 48.528C94.7627 48.912 94.912 49.2747 95.04 49.616C95.3813 50.512 95.0827 51.1307 94.144 51.472C93.888 51.5573 93.632 51.6427 93.376 51.728C93.1627 51.8133 92.928 51.8987 92.672 51.984C92.416 52.112 92.16 52.24 91.904 52.368C91.6907 52.4533 91.4773 52.56 91.264 52.688C90.368 53.1147 89.7493 52.8587 89.408 51.92ZM72.64 55.632C72.2133 55.504 71.744 55.3333 71.232 55.12C70.976 55.0347 70.72 54.9707 70.464 54.928C70.208 54.8853 69.9733 54.8213 69.76 54.736C68.9067 54.5227 68.6507 54.0107 68.992 53.2C69.8453 51.536 70.5707 49.7227 71.168 47.76C71.7653 45.7973 72.256 43.8773 72.64 42C72.768 41.2747 73.0667 40.7627 73.536 40.464C74.0053 40.1227 74.6027 40.016 75.328 40.144L76.544 40.4C77.1413 40.528 77.5893 40.8267 77.888 41.296C78.1867 41.7227 78.2933 42.2347 78.208 42.832C78.0373 43.728 77.824 44.7093 77.568 45.776C77.3547 46.8 77.0987 47.8453 76.8 48.912C76.5013 49.9787 76.16 51.024 75.776 52.048C75.4347 53.072 75.072 54.0107 74.688 54.864C74.4747 55.2907 74.176 55.568 73.792 55.696C73.4507 55.824 73.0667 55.8027 72.64 55.632Z" fill="white"/>
<path d="M139.84 33.64V8.36C139.84 7.96 139.96 7.64 140.2 7.4C140.467 7.13333 140.8 7 141.2 7H143.68C144.187 7 144.573 7.22667 144.84 7.68L151.32 18.48C151.693 19.0667 152.08 19.36 152.48 19.36C152.907 19.36 153.293 19.0667 153.64 18.48L160 7.68C160.267 7.22667 160.653 7 161.16 7H163.72C164.12 7 164.44 7.13333 164.68 7.4C164.947 7.64 165.08 7.96 165.08 8.36V33.64C165.08 34.04 164.947 34.3733 164.68 34.64C164.44 34.88 164.12 35 163.72 35H161.72C161.32 35 160.987 34.88 160.72 34.64C160.48 34.3733 160.36 34.04 160.36 33.64V20.12C160.36 18.4667 160.093 17.64 159.56 17.64C159.107 17.64 158.533 18.24 157.84 19.44L154.2 25.76C153.933 26.2133 153.533 26.44 153 26.44H151.88C151.347 26.44 150.947 26.2133 150.68 25.76L147 19.44C146.333 18.24 145.76 17.64 145.28 17.64C144.747 17.64 144.48 18.4667 144.48 20.12V33.64C144.48 34.04 144.347 34.3733 144.08 34.64C143.84 34.88 143.52 35 143.12 35H141.2C140.8 35 140.467 34.88 140.2 34.64C139.96 34.3733 139.84 34.04 139.84 33.64ZM183.098 35.52C179.445 35.52 176.738 34.56 174.978 32.64C173.218 30.72 172.338 27.9733 172.338 24.4V8.36C172.338 7.96 172.458 7.64 172.698 7.4C172.965 7.13333 173.298 7 173.698 7H175.658C176.058 7 176.378 7.13333 176.618 7.4C176.885 7.64 177.018 7.96 177.018 8.36V24.16C177.018 26.2133 177.485 27.8667 178.418 29.12C179.378 30.3733 180.938 31 183.098 31C184.192 31 185.112 30.84 185.858 30.52C186.632 30.1733 187.258 29.7067 187.738 29.12C188.218 28.5067 188.565 27.7867 188.778 26.96C189.018 26.1067 189.138 25.1733 189.138 24.16V8.36C189.138 7.96 189.258 7.64 189.498 7.4C189.765 7.13333 190.098 7 190.498 7H192.418C192.818 7 193.138 7.13333 193.378 7.4C193.645 7.64 193.778 7.96 193.778 8.36V24.4C193.778 27.9467 192.898 30.6933 191.138 32.64C189.405 34.56 186.725 35.52 183.098 35.52ZM201.145 33.64V8.36C201.145 7.96 201.265 7.64 201.505 7.4C201.771 7.13333 202.105 7 202.505 7H218.505C218.905 7 219.225 7.13333 219.465 7.4C219.731 7.64 219.865 7.96 219.865 8.36V9.92C219.865 10.32 219.731 10.6533 219.465 10.92C219.225 11.16 218.905 11.28 218.505 11.28H207.105C206.705 11.28 206.371 11.4133 206.105 11.68C205.865 11.92 205.745 12.24 205.745 12.64V17.2C205.745 17.6 205.865 17.9333 206.105 18.2C206.371 18.44 206.705 18.56 207.105 18.56H217.265C217.665 18.56 217.985 18.6933 218.225 18.96C218.491 19.2 218.625 19.52 218.625 19.92V21.52C218.625 21.92 218.491 22.2533 218.225 22.52C217.985 22.76 217.665 22.88 217.265 22.88H207.105C206.705 22.88 206.371 23.0133 206.105 23.28C205.865 23.52 205.745 23.84 205.745 24.24V29.36C205.745 29.76 205.865 30.0933 206.105 30.36C206.371 30.6 206.705 30.72 207.105 30.72H218.945C219.345 30.72 219.665 30.8533 219.905 31.12C220.171 31.36 220.305 31.68 220.305 32.08V33.64C220.305 34.04 220.171 34.3733 219.905 34.64C219.665 34.88 219.345 35 218.945 35H202.505C202.105 35 201.771 34.88 201.505 34.64C201.265 34.3733 201.145 34.04 201.145 33.64ZM226.582 33.64V8.36C226.582 7.96 226.702 7.64 226.942 7.4C227.209 7.13333 227.542 7 227.942 7H230.462C230.942 7 231.316 7.2 231.582 7.6L241.902 23.12C242.596 24.1333 243.142 24.64 243.542 24.64C244.102 24.64 244.382 23.88 244.382 22.36V8.36C244.382 7.96 244.502 7.64 244.742 7.4C245.009 7.13333 245.342 7 245.742 7H247.702C248.102 7 248.422 7.13333 248.662 7.4C248.929 7.64 249.062 7.96 249.062 8.36V33.64C249.062 34.04 248.929 34.3733 248.662 34.64C248.422 34.88 248.102 35 247.702 35H245.342C244.862 35 244.489 34.8 244.222 34.4L233.662 18.36C232.996 17.3467 232.449 16.84 232.022 16.84C231.462 16.84 231.182 17.6 231.182 19.12V33.64C231.182 34.04 231.049 34.3733 230.782 34.64C230.542 34.88 230.222 35 229.822 35H227.942C227.542 35 227.209 34.88 226.942 34.64C226.702 34.3733 226.582 34.04 226.582 33.64Z" fill="white"/>
<path d="M145.736 63.384C144.456 63.384 143.32 63.152 142.328 62.688C141.352 62.208 140.528 61.568 139.856 60.768C139.2 59.968 138.704 59.04 138.368 57.984C138.032 56.912 137.864 55.784 137.864 54.6C137.864 53.384 138.032 52.24 138.368 51.168C138.72 50.096 139.232 49.16 139.904 48.36C140.576 47.56 141.4 46.928 142.376 46.464C143.352 46 144.472 45.768 145.736 45.768C146.936 45.768 148.056 46.008 149.096 46.488C150.152 46.952 151.04 47.664 151.76 48.624C151.92 48.832 151.976 49.04 151.928 49.248C151.88 49.456 151.744 49.624 151.52 49.752L150.464 50.352C150.384 50.4 150.304 50.432 150.224 50.448C150.16 50.464 150.088 50.472 150.008 50.472C149.736 50.472 149.504 50.352 149.312 50.112C148.352 49.024 147.16 48.48 145.736 48.48C144.856 48.48 144.104 48.656 143.48 49.008C142.856 49.36 142.344 49.824 141.944 50.4C141.544 50.96 141.248 51.608 141.056 52.344C140.864 53.08 140.768 53.832 140.768 54.6C140.768 55.384 140.864 56.144 141.056 56.88C141.264 57.6 141.568 58.248 141.968 58.824C142.384 59.384 142.904 59.84 143.528 60.192C144.152 60.528 144.888 60.696 145.736 60.696C147.16 60.696 148.352 60.152 149.312 59.064C149.504 58.824 149.736 58.704 150.008 58.704C150.088 58.704 150.16 58.712 150.224 58.728C150.304 58.744 150.384 58.776 150.464 58.824L151.52 59.424C151.744 59.552 151.88 59.72 151.928 59.928C151.976 60.136 151.92 60.344 151.76 60.552C151.024 61.496 150.136 62.208 149.096 62.688C148.056 63.152 146.936 63.384 145.736 63.384ZM163.061 63.384C161.781 63.384 160.645 63.152 159.653 62.688C158.677 62.208 157.853 61.568 157.181 60.768C156.525 59.968 156.029 59.04 155.693 57.984C155.357 56.912 155.189 55.784 155.189 54.6C155.189 53.384 155.357 52.24 155.693 51.168C156.045 50.096 156.557 49.16 157.229 48.36C157.901 47.56 158.725 46.928 159.701 46.464C160.677 46 161.797 45.768 163.061 45.768C164.357 45.768 165.493 46.008 166.469 46.488C167.445 46.968 168.261 47.616 168.917 48.432C169.573 49.232 170.069 50.168 170.405 51.24C170.741 52.296 170.909 53.416 170.909 54.6C170.909 55.816 170.733 56.96 170.381 58.032C170.045 59.088 169.541 60.016 168.869 60.816C168.197 61.6 167.373 62.224 166.397 62.688C165.421 63.152 164.309 63.384 163.061 63.384ZM163.061 60.696C163.941 60.696 164.693 60.52 165.317 60.168C165.941 59.816 166.453 59.36 166.853 58.8C167.253 58.224 167.541 57.576 167.717 56.856C167.909 56.12 168.005 55.368 168.005 54.6C168.005 53.8 167.909 53.032 167.717 52.296C167.525 51.56 167.229 50.912 166.829 50.352C166.429 49.792 165.917 49.344 165.293 49.008C164.669 48.656 163.925 48.48 163.061 48.48C162.181 48.48 161.429 48.656 160.805 49.008C160.181 49.36 159.669 49.824 159.269 50.4C158.869 50.96 158.573 51.608 158.381 52.344C158.189 53.08 158.093 53.832 158.093 54.6C158.093 55.384 158.189 56.144 158.381 56.88C158.589 57.6 158.893 58.248 159.293 58.824C159.709 59.384 160.229 59.84 160.853 60.192C161.477 60.528 162.213 60.696 163.061 60.696ZM174.667 62.184V47.016C174.667 46.776 174.739 46.584 174.883 46.44C175.043 46.28 175.243 46.2 175.483 46.2H176.611C176.851 46.2 177.043 46.28 177.187 46.44C177.347 46.584 177.427 46.776 177.427 47.016V59.616C177.427 59.856 177.499 60.056 177.643 60.216C177.803 60.36 178.003 60.432 178.243 60.432H185.371C185.611 60.432 185.803 60.512 185.947 60.672C186.107 60.816 186.187 61.008 186.187 61.248V62.184C186.187 62.424 186.107 62.624 185.947 62.784C185.803 62.928 185.611 63 185.371 63H175.483C175.243 63 175.043 62.928 174.883 62.784C174.739 62.624 174.667 62.424 174.667 62.184ZM189.554 62.184V47.016C189.554 46.776 189.626 46.584 189.77 46.44C189.93 46.28 190.13 46.2 190.37 46.2H191.498C191.738 46.2 191.93 46.28 192.074 46.44C192.234 46.584 192.314 46.776 192.314 47.016V59.616C192.314 59.856 192.386 60.056 192.53 60.216C192.69 60.36 192.89 60.432 193.13 60.432H200.258C200.498 60.432 200.69 60.512 200.834 60.672C200.994 60.816 201.074 61.008 201.074 61.248V62.184C201.074 62.424 200.994 62.624 200.834 62.784C200.69 62.928 200.498 63 200.258 63H190.37C190.13 63 189.93 62.928 189.77 62.784C189.626 62.624 189.554 62.424 189.554 62.184ZM204.442 62.184V47.016C204.442 46.776 204.514 46.584 204.658 46.44C204.818 46.28 205.018 46.2 205.258 46.2H214.858C215.098 46.2 215.29 46.28 215.434 46.44C215.594 46.584 215.674 46.776 215.674 47.016V47.952C215.674 48.192 215.594 48.392 215.434 48.552C215.29 48.696 215.098 48.768 214.858 48.768H208.018C207.778 48.768 207.578 48.848 207.418 49.008C207.274 49.152 207.202 49.344 207.202 49.584V52.32C207.202 52.56 207.274 52.76 207.418 52.92C207.578 53.064 207.778 53.136 208.018 53.136H214.114C214.354 53.136 214.546 53.216 214.69 53.376C214.85 53.52 214.93 53.712 214.93 53.952V54.912C214.93 55.152 214.85 55.352 214.69 55.512C214.546 55.656 214.354 55.728 214.114 55.728H208.018C207.778 55.728 207.578 55.808 207.418 55.968C207.274 56.112 207.202 56.304 207.202 56.544V59.616C207.202 59.856 207.274 60.056 207.418 60.216C207.578 60.36 207.778 60.432 208.018 60.432H215.122C215.362 60.432 215.554 60.512 215.698 60.672C215.858 60.816 215.938 61.008 215.938 61.248V62.184C215.938 62.424 215.858 62.624 215.698 62.784C215.554 62.928 215.362 63 215.122 63H205.258C205.018 63 204.818 62.928 204.658 62.784C204.514 62.624 204.442 62.424 204.442 62.184ZM226.736 63.384C225.456 63.384 224.32 63.152 223.328 62.688C222.352 62.208 221.528 61.568 220.856 60.768C220.2 59.968 219.704 59.04 219.368 57.984C219.032 56.912 218.864 55.784 218.864 54.6C218.864 53.384 219.032 52.24 219.368 51.168C219.72 50.096 220.232 49.16 220.904 48.36C221.576 47.56 222.4 46.928 223.376 46.464C224.352 46 225.472 45.768 226.736 45.768C227.936 45.768 229.056 46.008 230.096 46.488C231.152 46.952 232.04 47.664 232.76 48.624C232.92 48.832 232.976 49.04 232.928 49.248C232.88 49.456 232.744 49.624 232.52 49.752L231.464 50.352C231.384 50.4 231.304 50.432 231.224 50.448C231.16 50.464 231.088 50.472 231.008 50.472C230.736 50.472 230.504 50.352 230.312 50.112C229.352 49.024 228.16 48.48 226.736 48.48C225.856 48.48 225.104 48.656 224.48 49.008C223.856 49.36 223.344 49.824 222.944 50.4C222.544 50.96 222.248 51.608 222.056 52.344C221.864 53.08 221.768 53.832 221.768 54.6C221.768 55.384 221.864 56.144 222.056 56.88C222.264 57.6 222.568 58.248 222.968 58.824C223.384 59.384 223.904 59.84 224.528 60.192C225.152 60.528 225.888 60.696 226.736 60.696C228.16 60.696 229.352 60.152 230.312 59.064C230.504 58.824 230.736 58.704 231.008 58.704C231.088 58.704 231.16 58.712 231.224 58.728C231.304 58.744 231.384 58.776 231.464 58.824L232.52 59.424C232.744 59.552 232.88 59.72 232.928 59.928C232.976 60.136 232.92 60.344 232.76 60.552C232.024 61.496 231.136 62.208 230.096 62.688C229.056 63.152 227.936 63.384 226.736 63.384ZM241.061 62.184V49.584C241.061 49.344 240.981 49.152 240.821 49.008C240.677 48.848 240.485 48.768 240.245 48.768H236.813C236.573 48.768 236.373 48.696 236.213 48.552C236.069 48.392 235.997 48.192 235.997 47.952V47.016C235.997 46.776 236.069 46.584 236.213 46.44C236.373 46.28 236.573 46.2 236.813 46.2H248.093C248.333 46.2 248.525 46.28 248.669 46.44C248.829 46.584 248.909 46.776 248.909 47.016V47.952C248.909 48.192 248.829 48.392 248.669 48.552C248.525 48.696 248.333 48.768 248.093 48.768H244.685C244.445 48.768 244.245 48.848 244.085 49.008C243.941 49.152 243.869 49.344 243.869 49.584V62.184C243.869 62.424 243.789 62.624 243.629 62.784C243.485 62.928 243.293 63 243.053 63H241.877C241.637 63 241.437 62.928 241.277 62.784C241.133 62.624 241.061 62.424 241.061 62.184ZM252.456 62.184V47.016C252.456 46.776 252.528 46.584 252.672 46.44C252.832 46.28 253.032 46.2 253.272 46.2H254.4C254.64 46.2 254.832 46.28 254.976 46.44C255.136 46.584 255.216 46.776 255.216 47.016V62.184C255.216 62.424 255.136 62.624 254.976 62.784C254.832 62.928 254.64 63 254.4 63H253.272C253.032 63 252.832 62.928 252.672 62.784C252.528 62.624 252.456 62.424 252.456 62.184ZM264.14 62.448L258.74 47.28C258.612 46.96 258.62 46.704 258.764 46.512C258.908 46.304 259.156 46.2 259.508 46.2H260.756C260.932 46.2 261.084 46.248 261.212 46.344C261.356 46.44 261.46 46.576 261.524 46.752L264.956 56.928C265.196 57.616 265.452 57.96 265.724 57.96C266.012 57.96 266.268 57.616 266.492 56.928L269.924 46.752C269.988 46.576 270.084 46.44 270.212 46.344C270.356 46.248 270.516 46.2 270.692 46.2H271.94C272.292 46.2 272.54 46.304 272.684 46.512C272.828 46.704 272.836 46.96 272.708 47.28L267.308 62.448C267.244 62.624 267.14 62.76 266.996 62.856C266.868 62.952 266.716 63 266.54 63H264.908C264.732 63 264.572 62.952 264.428 62.856C264.3 62.76 264.204 62.624 264.14 62.448ZM276.254 62.184V47.016C276.254 46.776 276.326 46.584 276.47 46.44C276.63 46.28 276.83 46.2 277.07 46.2H286.67C286.91 46.2 287.102 46.28 287.246 46.44C287.406 46.584 287.486 46.776 287.486 47.016V47.952C287.486 48.192 287.406 48.392 287.246 48.552C287.102 48.696 286.91 48.768 286.67 48.768H279.83C279.59 48.768 279.39 48.848 279.23 49.008C279.086 49.152 279.014 49.344 279.014 49.584V52.32C279.014 52.56 279.086 52.76 279.23 52.92C279.39 53.064 279.59 53.136 279.83 53.136H285.926C286.166 53.136 286.358 53.216 286.502 53.376C286.662 53.52 286.742 53.712 286.742 53.952V54.912C286.742 55.152 286.662 55.352 286.502 55.512C286.358 55.656 286.166 55.728 285.926 55.728H279.83C279.59 55.728 279.39 55.808 279.23 55.968C279.086 56.112 279.014 56.304 279.014 56.544V59.616C279.014 59.856 279.086 60.056 279.23 60.216C279.39 60.36 279.59 60.432 279.83 60.432H286.934C287.174 60.432 287.366 60.512 287.51 60.672C287.67 60.816 287.75 61.008 287.75 61.248V62.184C287.75 62.424 287.67 62.624 287.51 62.784C287.366 62.928 287.174 63 286.934 63H277.07C276.83 63 276.63 62.928 276.47 62.784C276.326 62.624 276.254 62.424 276.254 62.184Z" fill="white"/>
</svg>
